<?xml version="1.0" encoding="utf-8"?>
<svg version="1.0" width="1134pt" height="1133.97pt" viewBox="0 0 1134 1134" preserveAspectRatio="xMidYMid meet" xmlns="http://www.w3.org/2000/svg">
  <g transform="matrix(0, -0.1, -0.1, 0, -6339.331543, -5161.883301)" fill="#000000" stroke="none" style="transform-origin: 6909.26px 5723.53px;">
    <path d="M5685 11325 c-43 -20 -59 -35 -81 -75 -18 -34 -19 -78 -22 -1322 l-2 -1288 -2003 0 c-1886 0 -2004 -1 -2036 -18 -19 -9 -48 -34 -65 -55 l-31 -39 0 -2776 c0 -2625 1 -2779 17 -2809 10 -18 35 -45 55 -60 l36 -28 2034 -3 2033 -2 0 -1293 c0 -907 3 -1304 11 -1332 31 -110 160 -152 253 -84 31 23 1666 1406 4826 4083 882 747 1612 1369 1622 1381 10 12 23 42 29 66 26 98 194 -53 -2157 1940 -1171 993 -2628 2228 -3237 2744 -609 517 -1126 950 -1149 963 -47 25 -90 28 -133 7z"/>
  </g>
</svg>